<svg id="Group_602" data-name="Group 602" xmlns="http://www.w3.org/2000/svg" viewBox="543.982 526 135.559 35">
  <defs>
    <style>
      .cls-1, .cls-4 {
        fill: #50b848;
      }

      .cls-1, .cls-2 {
        fill-rule: evenodd;
      }

      .cls-2, .cls-3 {
        fill: #006c3f;
      }
    </style>
  </defs>
  <g id="Group_595" data-name="Group 595" transform="translate(30 464)">
    <path id="Path_1691" data-name="Path 1691" class="cls-1" d="M123.6,53.8l-.8,3.7a1.934,1.934,0,0,1-.9.5c-.2,0-.3.1-.5.1-.3,0-1.3-.1-1.3-1.5a2.935,2.935,0,0,1,.7-1.9,2.829,2.829,0,0,1,2.5-.9Zm1.3-.9h-1.6a4.209,4.209,0,0,0-4,1.8,3.939,3.939,0,0,0-.5,2,2.022,2.022,0,0,0,2.1,2.2,2.86,2.86,0,0,0,1.7-.5l-.1.6c-.2.6-.4,1.8-1.9,1.8a2.291,2.291,0,0,1-1.8-.8h-.1l-.5.7v.1a1.794,1.794,0,0,0,.7.5,4.711,4.711,0,0,0,1.7.4,2.616,2.616,0,0,0,2.2-.9,6.4,6.4,0,0,0,1-2.6l.3-1.5c.4-1.8.5-2.3.8-3.8Z" transform="translate(445 35)"/>
    <path id="Path_1692" data-name="Path 1692" class="cls-1" d="M126.7,57.7l.2-1.1a5.331,5.331,0,0,1,.8-2.2,1.234,1.234,0,0,1,.8-.4c.2,0,.3.1.5.2h.1l.4-1.1V53a.9.9,0,0,0-.5-.1,1.546,1.546,0,0,0-1.2.7c-.1.1-.2.3-.3.4l.3-1-.1-.1c-.6.1-.7.1-1.2.2l-.1.1a22.6,22.6,0,0,1-.6,3l-.3,1.1-.4,1.7.1.1h1.2l.1-.1Z" transform="translate(445 35)"/>
    <path id="Path_1693" data-name="Path 1693" class="cls-1" d="M133.8,55.9c-.2.9-.7,2.2-1.9,2.2a1.182,1.182,0,0,1-1.2-1.3c0-.4.2-3.2,2-3.2a1.164,1.164,0,0,1,1.2,1.3A3.084,3.084,0,0,1,133.8,55.9Zm1.2.4a5.019,5.019,0,0,0,.2-1.2,2.134,2.134,0,0,0-2.4-2.3c-2.5,0-3.2,2.5-3.2,3.9A2.092,2.092,0,0,0,132,59C134,59,134.7,57.3,135,56.3Z" transform="translate(445 35)"/>
    <path id="Path_1694" data-name="Path 1694" class="cls-1" d="M141.1,57l.3-1.2L142,53v-.1l-1.2.1-.1.1a20.811,20.811,0,0,1-.5,2.4l-.4,1.9a2.187,2.187,0,0,1-1.6.7.821.821,0,0,1-.9-.9,6.641,6.641,0,0,1,.3-1.5c.1-.2.5-2.2.6-2.6l-.1-.1H137l-.1.1a9.926,9.926,0,0,1-.3,1.5l-.3,1.1a7.55,7.55,0,0,0-.3,1.7,1.539,1.539,0,0,0,1.7,1.6,3.41,3.41,0,0,0,1.9-.7l-.1.6.1.1h1.1l.1-.1Z" transform="translate(445 35)"/>
    <path id="Path_1695" data-name="Path 1695" class="cls-1" d="M144.6,54.3a1.76,1.76,0,0,1,1.3-.6,1.319,1.319,0,0,1,1.3,1.5,2.9,2.9,0,0,1-3,2.8h-.5Zm.3-1.4h0l-1.3.1-.1.1a11.513,11.513,0,0,1-.4,2c-.2,1-.4,2-.6,2.9l-.2.9-.6,2.6.1.1H143l.1-.1c.3-1.4.3-1.6.5-2.7h.7a4.253,4.253,0,0,0,3.5-1.5,3.775,3.775,0,0,0,.8-2.3,2.164,2.164,0,0,0-2.1-2.3,2.578,2.578,0,0,0-1.6.6Z" transform="translate(445 35)"/>
    <path id="Path_1696" data-name="Path 1696" class="cls-2" d="M101.6,55.9a2.574,2.574,0,0,1-.6,1.5,1.05,1.05,0,0,1-.9.5.76.76,0,0,1-.8-.6,2.034,2.034,0,0,1-.1-.5,5.007,5.007,0,0,1,.7-2.5,1.06,1.06,0,0,1,1-.5c.7,0,.8.6.8,1.1A3.4,3.4,0,0,1,101.6,55.9Zm2,.4a5.019,5.019,0,0,0,.2-1.2,2.094,2.094,0,0,0-.8-1.9,3.139,3.139,0,0,0-2.1-.7c-3.1,0-3.7,2.9-3.7,4a2.481,2.481,0,0,0,.8,2,3.117,3.117,0,0,0,2,.6,3.492,3.492,0,0,0,2.4-.8A3.4,3.4,0,0,0,103.6,56.3Z" transform="translate(445 35)"/>
    <path id="Path_1697" data-name="Path 1697" class="cls-2" d="M107.7,57.5h0c-.3,0-.5.1-.8.1-.2,0-.6-.1-.6-.5,0-.2.2-.9.2-1.1l.5-2.1h1.1l.1-.1c.2-.6.2-.7.4-1.2v-.1h-1.2l.3-1.1.3-1-.1-.1c-.8.2-1.1.3-2,.5l-.1.1-.3,1.5h-.8l-.1.1-.3,1.2.1.1h.8l-.4,1.6a9.544,9.544,0,0,0-.4,2.1c0,1.1.8,1.4,1.8,1.4.4,0,.7-.1,1.1-.1l.1-.1Z" transform="translate(445 35)"/>
    <path id="Path_1698" data-name="Path 1698" class="cls-2" d="M111.3,54.3a1.4,1.4,0,0,1,.9-.3c.2,0,.9.1.9,1.1a2.755,2.755,0,0,1-.9,2.1,2.665,2.665,0,0,1-1.3.5h-.3Zm.4-1.7h0l-2.1.3-.1.1c-.1.6-.1,1-.3,2-.2,1.1-.5,2.1-.7,3.2l-.2.9-.7,2.8.1.1h2l.1-.1.6-2.9c1.3,0,2.8,0,3.9-1.4a4.545,4.545,0,0,0,.9-2.6c0-1.5-.8-2.4-2-2.4a2.673,2.673,0,0,0-1.6.6Z" transform="translate(445 35)"/>
  </g>
  <g id="Group_2" data-name="Group 2" transform="translate(543.982 526)">
    <g id="Group_600" data-name="Group 600" transform="translate(31.771 0.142)">
      <path id="Path_1719" data-name="Path 1719" class="cls-3" d="M80.926,11.338c-1.231,5.208-1.278,5.492-1.941,9.186l-.189.142-3.835.095-.142-.142.237-1.089A5.636,5.636,0,0,1,71.361,21c-1.989,0-4.261-1.184-4.261-4.972a9.808,9.808,0,0,1,1.989-5.966c2.036-2.6,4.782-2.936,7.055-2.936.521,0,1.089.047,1.61.047l.616-2.746A24.7,24.7,0,0,0,78.937,1.3l.189-.142L83.435.4l.142.189-1.136,4.4Zm-3.883-1.326a5.332,5.332,0,0,0-3.078.521c-2.036,1.136-2.415,3.977-2.415,4.972,0,1.752.852,2.509,1.941,2.509a3.152,3.152,0,0,0,1.894-.8Z" transform="translate(-67.1 -0.353)"/>
      <path id="Path_1720" data-name="Path 1720" class="cls-3" d="M96.9,26.637l.8-2.746.237-.095a4.606,4.606,0,0,0,3.551,1.657c1.989,0,2.178-1.136,2.178-1.468,0-.852-.852-1.278-1.752-1.7L101.351,22c-1.373-.71-2.652-1.468-2.652-3.5,0-.616.237-4.593,5.824-4.593a9.471,9.471,0,0,1,4.356,1.042l.095.237a27.237,27.237,0,0,0-.758,2.746l-.237.047c-.237-.237-.473-.521-.758-.758a4.111,4.111,0,0,0-2.32-.758c-1.373,0-1.941.71-1.941,1.278,0,.758.9,1.184,1.563,1.515l.568.284c1.089.568,2.936,1.468,2.936,3.741,0,1.231-.616,4.83-6.25,4.83a8.522,8.522,0,0,1-4.782-1.278Z" transform="translate(-82.79 -7.461)"/>
      <path id="Path_1721" data-name="Path 1721" class="cls-3" d="M131.938,12.658c1.42,3.788,1.657,4.356,2.936,7.718l-.189.237-4.261.095-.189-.142c-.426-1.468-1.752-5.682-2.367-7.339-.758,3.267-.947,4.167-1.515,7.244l-.189.142-4.119.095-.142-.189,1.563-6.3.71-3.078c.758-3.362,1.752-7.955,1.989-9.943l.189-.189c1.894-.237,2.509-.379,4.5-.71l.142.189-.947,3.456-2.131,8.9c1.562-1.752,2.794-3.22,4.545-5.54l.237-.142c1.8,0,2.225,0,4.167-.095l.095.237c-.284.331-1.847,1.894-2.178,2.225Z" transform="translate(-95.953 -0.3)"/>
    </g>
    <path id="Path_1722" data-name="Path 1722" class="cls-4" d="M189.623,4.485a2.01,2.01,0,1,1,2.462,1.42,2.05,2.05,0,0,1-2.462-1.42" transform="translate(-99.803 -1.029)"/>
    <g id="Group_601" data-name="Group 601" transform="translate(72.49 0.331)">
      <path id="Path_1723" data-name="Path 1723" class="cls-4" d="M161.86,17.6a4.239,4.239,0,0,1-2.936,1.231,2.986,2.986,0,0,1-3.078-3.267,6.093,6.093,0,0,1,6.439-6.155c.474,0,.9.047,1.373.047Zm5.3-11.979L168.394.842,168.252.7l-2.7.473-.189.142c-.189,1.278-.284,1.8-.616,3.409l-.616,2.841c-.71-.047-1.184-.095-1.8-.095a9.5,9.5,0,0,0-6.392,2.036,8.911,8.911,0,0,0-2.841,6.345c0,2.983,1.894,5.066,4.735,5.066a5.913,5.913,0,0,0,3.693-1.326l-.189.994.142.142,2.367-.047.189-.142c.189-1.184.284-1.7.616-3.22.473-2.083.9-4.119,1.373-6.155Z" transform="translate(-153.1 -0.7)"/>
      <path id="Path_1724" data-name="Path 1724" class="cls-4" d="M199.409,25.437l.521-2.509c.568-2.509.947-3.977,1.752-4.83a2.319,2.319,0,0,1,1.752-.852,1.942,1.942,0,0,1,1.042.331l.237-.095.994-2.462-.095-.237a2.678,2.678,0,0,0-1.136-.284,3.632,3.632,0,0,0-2.6,1.515,5.2,5.2,0,0,0-.663.994l.568-2.225-.142-.189a25.55,25.55,0,0,1-2.746.426l-.189.189c-.426,2.6-.521,3.267-1.278,6.534l-.474,2.462L196,27.9l.142.142,2.6-.047.189-.189Z" transform="translate(-175.688 -7.966)"/>
      <path id="Path_1725" data-name="Path 1725" class="cls-4" d="M218.136,20.1a6.076,6.076,0,0,1,1.042-2.083,3.632,3.632,0,0,1,3.03-1.468,2.327,2.327,0,0,1,2.651,2.415,9.008,9.008,0,0,1-.142,1.184h-6.581ZM225.9,24.98l-.189-.142a6.61,6.61,0,0,1-4.167,1.515c-2.367,0-3.788-1.042-3.788-3.314a9.2,9.2,0,0,1,.095-1.136c1.326-.047,1.989-.047,3.172-.047.947,0,5.066.047,5.871.047l.189-.142a11.933,11.933,0,0,0,.284-2.273,4.456,4.456,0,0,0-1.42-3.646,5.566,5.566,0,0,0-3.6-1.042c-4.972,0-7.15,4.545-7.15,8.191,0,2.557,1.184,4.83,4.167,5.35a9.792,9.792,0,0,0,1.657.142,8.163,8.163,0,0,0,4.119-.994l.142-.142Z" transform="translate(-185.797 -8.124)"/>
      <path id="Path_1726" data-name="Path 1726" class="cls-4" d="M275.093,21.915a4.493,4.493,0,0,1-1.468.331,1.093,1.093,0,0,1-1.231-1.136,7.591,7.591,0,0,1,.237-1.373,9.713,9.713,0,0,0,.237-1.136l1.373-5.682c1.231.047,1.515.047,2.557.047l.189-.142a11.716,11.716,0,0,1,.521-1.7l-.095-.142c-1.042.047-1.61.047-2.746.047l.474-1.941c.237-.994.332-1.278.521-1.894L275.471,7c-1.089.284-1.373.379-2.6.663l-.189.142c-.237,1.278-.331,1.7-.71,3.172-.663,0-.9,0-1.7-.047l-.189.142a10.919,10.919,0,0,1-.474,1.657l.142.189c.8-.047.994-.047,1.8-.047l-.8,3.409c-1.042,4.356-1.042,4.5-1.042,5.492a2.1,2.1,0,0,0,1.421,2.178,4.648,4.648,0,0,0,1.562.237,5.955,5.955,0,0,0,1.8-.237l.189-.189c.095-.284.142-.568.237-.852s.189-.616.284-.947Z" transform="translate(-214.439 -4.017)"/>
      <path id="Path_1727" data-name="Path 1727" class="cls-4" d="M186.741,24.228l.521-2.6c.758-3.409.9-4.119,1.563-6.534l-.142-.189-2.746.426-.189.189c-.284,1.8-.331,2.273-.8,4.356l-.331,1.563c-.663,3.03-.9,3.883-1.61,6.723l.142.142,2.652-.095.189-.142Z" transform="translate(-168.843 -8.177)"/>
      <path id="Path_1728" data-name="Path 1728" class="cls-4" d="M253.464,25.111l-.663,2.273-.142.189a7.709,7.709,0,0,1-3.172.71,5.407,5.407,0,0,1-5.587-5.634c0-3.5,2.32-8.049,7.528-8.049a6.249,6.249,0,0,1,3.788.994l.047.189-.616,1.989-.237.095a2.033,2.033,0,0,0-.426-.473,3.772,3.772,0,0,0-2.415-.758c-3.172,0-4.83,3.362-4.83,5.777a3.516,3.516,0,0,0,3.551,3.883,4.5,4.5,0,0,0,3.03-1.231Z" transform="translate(-200.908 -8.019)"/>
    </g>
    <path id="Path_1729" data-name="Path 1729" class="cls-2" d="M0,12.5A12.488,12.488,0,0,1,12.5,0V4.5a8,8,0,1,0,8.049,8h4.5A12.524,12.524,0,0,1,0,12.5Z" transform="translate(0 0)"/>
    <path id="Path_1730" data-name="Path 1730" class="cls-3" d="M34.6,8.072a3.172,3.172,0,1,1,3.172,3.172A3.173,3.173,0,0,1,34.6,8.072Z" transform="translate(-18.217 -2.58)"/>
    <path id="Path_1731" data-name="Path 1731" class="cls-4" d="M14.8,20.24a5.54,5.54,0,1,1,5.54,5.54A5.517,5.517,0,0,1,14.8,20.24Z" transform="translate(-7.792 -7.74)"/>
  </g>
</svg>
