<svg width="178" height="37" viewBox="0 0 178 37" fill="none" xmlns="http://www.w3.org/2000/svg">
<g id="BankaDSK_ciril_CM [Converted] 1" clip-path="url(#clip0_9321_5248)">
<g id="Group">
<g id="Group_2">
<path id="Vector" fill-rule="evenodd" clip-rule="evenodd" d="M54.1951 32.0704L53.6906 34.3152C53.5337 34.445 53.4328 34.5352 53.1637 34.6029C53.0628 34.6311 52.9563 34.6424 52.8555 34.6424C52.6873 34.6424 52.0876 34.5803 52.0876 33.7568C52.0876 33.3169 52.2949 32.8544 52.4967 32.6062C52.9283 32.076 53.5281 32.0704 54.0157 32.0648H54.1951V32.0704ZM55.0078 31.5233L54.0493 31.5346C53.2534 31.5515 52.2837 31.5684 51.6672 32.6401C51.4878 32.9446 51.3365 33.3789 51.3365 33.8584C51.3365 34.7326 51.897 35.1782 52.5752 35.1782C53.046 35.1782 53.2926 35.0259 53.5729 34.8623L53.4832 35.2177C53.3879 35.6125 53.2142 36.3232 52.3622 36.3232C51.7288 36.3232 51.4318 35.9847 51.2972 35.8325H51.2412L50.9609 36.2668V36.3288C51.0955 36.4529 51.202 36.5488 51.3701 36.6334C51.6448 36.7687 52.0259 36.8477 52.3902 36.8477C52.8891 36.8477 53.4047 36.718 53.7354 36.3232C54.0381 35.9735 54.1446 35.4828 54.3128 34.7326L54.5089 33.8132C54.75 32.719 54.8116 32.4427 55.0302 31.5684L55.0022 31.512L55.0078 31.5233Z" fill="#006C3F"/>
<path id="Vector_2" fill-rule="evenodd" clip-rule="evenodd" d="M56.0955 34.4168L56.2412 33.7343C56.3925 33.0518 56.4934 32.657 56.7232 32.4201C56.8522 32.2848 57.0091 32.1889 57.1941 32.1889C57.3118 32.1889 57.3846 32.2284 57.4799 32.2848L57.5472 32.2622L57.8106 31.5854L57.7882 31.5233C57.6705 31.4726 57.5808 31.4387 57.4743 31.4387C57.2613 31.4387 56.9867 31.5741 56.7625 31.8561C56.6952 31.9407 56.6392 32.0253 56.5831 32.1268L56.7345 31.5233L56.7008 31.4726C56.3701 31.5402 56.2973 31.5459 55.961 31.591L55.9105 31.6361C55.7984 32.3524 55.776 32.5329 55.5686 33.4184L55.4173 34.0727L55.165 35.0767L55.1987 35.1162L55.9105 35.1049L55.9666 35.0541L56.0899 34.4055L56.0955 34.4168Z" fill="#006C3F"/>
<path id="Vector_3" fill-rule="evenodd" clip-rule="evenodd" d="M60.3101 33.3677C60.1868 33.9317 59.9121 34.6875 59.1834 34.6875C58.8135 34.6875 58.4884 34.445 58.4884 33.8979C58.4884 33.6441 58.6229 31.9633 59.6991 31.9633C59.9513 31.9633 60.3941 32.0817 60.3941 32.7755C60.3941 32.9672 60.3605 33.1703 60.3101 33.3677ZM61.0219 33.582C61.0836 33.3395 61.1228 33.0913 61.1228 32.8544C61.1228 31.9689 60.5903 31.4669 59.6935 31.4669C58.2026 31.4669 57.7598 32.9503 57.7598 33.7907C57.7598 34.727 58.2586 35.2008 59.1666 35.2008C60.4502 35.2008 60.8706 34.1742 61.0163 33.582H61.0219Z" fill="#006C3F"/>
<path id="Vector_4" fill-rule="evenodd" clip-rule="evenodd" d="M64.6762 34.005L64.8387 33.2549L65.2367 31.5628L65.2087 31.5177L64.5192 31.5515L64.4632 31.6023C64.3735 32.1043 64.3455 32.2509 64.1773 33.0406L63.9195 34.2081C63.7401 34.3604 63.4375 34.6086 62.9891 34.6086C62.8265 34.6086 62.423 34.5409 62.423 34.0389C62.423 33.8133 62.5407 33.2887 62.5799 33.1195C62.6135 32.9898 62.8994 31.8054 62.9554 31.5685L62.9218 31.529L62.238 31.5572L62.1875 31.6079C62.1203 31.9802 62.1035 32.0704 61.997 32.5386L61.84 33.2154C61.7279 33.7174 61.6719 33.9768 61.6719 34.2532C61.6719 34.9808 62.238 35.1951 62.6752 35.1951C63.0395 35.1951 63.4991 35.0316 63.8018 34.7608L63.7177 35.0993L63.7514 35.15L64.424 35.1218L64.4688 35.0823L64.6762 34.022V34.005Z" fill="#006C3F"/>
<path id="Vector_5" fill-rule="evenodd" clip-rule="evenodd" d="M66.7781 32.3863C66.879 32.2904 67.148 32.0423 67.5796 32.0423C67.9551 32.0423 68.3587 32.2735 68.3587 32.9278C68.3587 33.7287 67.7309 34.6029 66.5595 34.6029C66.4586 34.6029 66.3745 34.586 66.2792 34.5804L66.7781 32.3863ZM66.963 31.529L66.9294 31.4782L66.1952 31.5967L66.1447 31.6362C66.0887 31.9802 66.055 32.2227 65.9317 32.8319C65.8084 33.4241 65.6739 34.022 65.5394 34.6086L65.4048 35.15L65.0293 36.718L65.0629 36.7575H65.7804L65.8308 36.718C65.9822 35.8833 66.0158 35.731 66.1615 35.0993C66.2904 35.1049 66.4306 35.1049 66.5595 35.1049C66.9238 35.1049 67.9607 35.1049 68.6446 34.2194C68.9248 33.8584 69.1042 33.3395 69.1042 32.8375C69.1042 31.9633 68.5269 31.4613 67.8711 31.4613C67.4395 31.4613 67.1536 31.6305 66.8902 31.7997L66.9574 31.5177L66.963 31.529Z" fill="#006C3F"/>
</g>
<path id="Vector_6" fill-rule="evenodd" clip-rule="evenodd" d="M41.0455 33.3338C40.911 33.9768 40.754 34.163 40.6756 34.2645C40.5523 34.4168 40.3673 34.5465 40.1543 34.5465C39.9189 34.5465 39.7227 34.4337 39.6442 34.2024C39.6218 34.1517 39.5994 34.0558 39.5994 33.8866C39.5994 33.5538 39.7507 32.736 40.0198 32.3806C40.0983 32.2848 40.272 32.0873 40.6083 32.0873C41.0287 32.0873 41.1184 32.4596 41.1184 32.7303C41.1184 32.9559 41.0848 33.1646 41.0455 33.3451V33.3338ZM42.2226 33.6046C42.2786 33.3677 42.3179 33.1195 42.3179 32.8826C42.3179 32.4483 42.2338 32.0479 41.8695 31.7151C41.5332 31.4105 41.0735 31.3146 40.6251 31.3146C38.7643 31.3146 38.4111 33.0518 38.4111 33.7117C38.4111 34.2532 38.5625 34.648 38.8764 34.9244C39.2183 35.229 39.7227 35.2966 40.0927 35.2966C40.6363 35.2966 41.1016 35.1782 41.5107 34.8454C41.8919 34.5352 42.1105 34.084 42.2282 33.6046H42.2226Z" fill="#006C3F"/>
<path id="Vector_7" fill-rule="evenodd" clip-rule="evenodd" d="M44.717 34.304L44.6721 34.2701C44.5432 34.3153 44.4423 34.3548 44.2573 34.3548C44.106 34.3548 43.921 34.2871 43.921 34.0615C43.921 33.9374 44.0163 33.5369 44.0556 33.379L44.3582 32.1156L45.0196 32.1325L45.0757 32.0817C45.171 31.7433 45.199 31.6644 45.2999 31.3598L45.2719 31.309L44.5432 31.3259L44.7001 30.6717L44.8571 30.0738L44.8122 30.0287C44.319 30.1753 44.1733 30.2092 43.6408 30.3333L43.5903 30.384L43.383 31.3147H42.9121L42.8617 31.3485L42.6543 32.0761L42.6991 32.1325L43.198 32.1156L42.9626 33.1026C42.8617 33.5031 42.7272 34.0445 42.7272 34.3491C42.7272 34.9977 43.1924 35.1895 43.8089 35.1895C44.0556 35.1895 44.2237 35.1557 44.4535 35.1105L44.5096 35.0541L44.7226 34.304H44.717Z" fill="#006C3F"/>
<path id="Vector_8" fill-rule="evenodd" clip-rule="evenodd" d="M46.8635 32.3807C47.0149 32.2792 47.1718 32.172 47.3792 32.172C47.5249 32.172 47.9117 32.2453 47.9117 32.8488C47.9117 33.3959 47.6539 33.8979 47.368 34.1461C47.1158 34.3548 46.7795 34.4394 46.5833 34.4394C46.5272 34.4394 46.4656 34.4337 46.4095 34.4225L46.8692 32.3751L46.8635 32.3807ZM47.0709 31.3542L47.0261 31.3034L45.8042 31.5065L45.7537 31.5572C45.7089 31.9238 45.6809 32.1325 45.5464 32.7811C45.4174 33.4241 45.2773 34.0615 45.1316 34.7101L45.0027 35.2572L44.5879 36.9493L44.6215 37.0001C44.885 36.9944 45.1036 36.9775 45.3446 36.9775C45.5071 36.9775 45.6641 36.9831 45.8322 36.9831L45.8827 36.9493L46.2246 35.229C46.9813 35.229 47.8781 35.2347 48.5843 34.3661C48.9542 33.9148 49.1336 33.3001 49.1336 32.7811C49.1336 31.8674 48.6516 31.326 47.9397 31.326C47.4745 31.326 47.1662 31.5403 46.9813 31.67L47.0653 31.3542H47.0709Z" fill="#006C3F"/>
</g>
<path id="Vector_9" d="M157.833 20.9817L156.846 24.7719L156.689 24.9581C156.387 25.0821 156.107 25.2062 155.798 25.2965C155.081 25.5503 153.82 25.7421 152.648 25.7421C148.192 25.7421 145.283 23.0065 145.283 18.2349C145.283 13.796 148.276 8.26294 155.03 8.26294C155.849 8.26294 156.639 8.35882 157.457 8.51675C158.085 8.64648 158.522 8.79312 158.892 8.96797C159.257 9.13718 159.554 9.32331 159.896 9.53763L159.94 9.68992L158.887 13.2489L158.702 13.3053C158.522 13.0741 158.343 12.8654 158.164 12.6793C157.502 12.0814 156.42 11.7825 155.512 11.7825C152.43 11.7825 150.535 14.941 150.535 17.9134C150.535 21.1227 152.564 22.1549 154.24 22.1549C156.028 22.1549 157.121 21.3314 157.659 20.8971L157.833 20.9817Z" fill="#006C3F"/>
<path id="Vector_10" d="M91.1157 10.4796L90.6225 12.9444C89.451 18.3139 89.0138 20.0454 87.9993 25.3755L87.7807 25.5672L84.541 25.6631L84.3784 25.4432L85.6788 19.9496L86.06 18.1503C84.6699 18.1221 83.2799 18.0939 81.8954 18.0939C80.808 18.0939 79.9785 18.1108 79.1377 18.1334C78.6613 20.2936 78.2633 22.1944 77.658 25.3811L77.4338 25.5729L74.1941 25.6688L74.0371 25.4488L75.3375 19.9552L75.8476 17.5581C76.7051 13.7904 76.8621 12.9613 77.3721 9.47562L77.5963 9.25001C79.0873 9.05824 79.4348 8.99056 80.9594 8.67471L81.1163 8.89468L80.7744 10.4796L80.2811 12.9444L79.7655 15.2794C80.9313 15.3076 82.0972 15.3246 83.2686 15.3246C84.5074 15.3246 85.3201 15.302 86.6989 15.2738C87.1417 13.232 87.3267 12.1153 87.7135 9.46998L87.9377 9.24437C89.4286 9.0526 89.7817 8.98492 91.3007 8.66907L91.4576 8.88904L91.1157 10.4739V10.4796Z" fill="#50B848"/>
<path id="Vector_11" d="M51.3703 17.654C51.5945 16.7233 51.7514 15.7927 51.7514 14.8959C51.7514 11.6528 49.6775 11.1113 48.5005 11.1113C43.4951 11.1113 42.8562 18.94 42.8562 20.13C42.8562 22.6964 44.3863 23.8188 46.1127 23.8188C49.5262 23.8188 50.7985 20.288 51.3759 17.654M54.6828 18.6467C53.9822 21.4047 52.0373 26.1877 46.0398 26.1877C41.7968 26.1877 39.4707 23.9711 39.4707 19.6111C39.4707 19.0471 39.5155 18.4211 39.6108 17.7611C39.6276 17.5976 39.6501 17.434 39.6781 17.2704C40.8327 10.0397 43.9435 3.18112 50.7817 3.11343C51.6953 3.10779 53.5394 3.00627 54.8006 2.70734L54.3409 5.59514C53.0798 5.92228 51.0732 6.09148 49.9017 6.10276C48.45 6.11968 47.4411 6.67243 46.7461 7.34362C46.3986 7.67639 46.1351 8.03737 45.9277 8.37014C45.7204 8.69728 45.5746 9.00185 45.4625 9.22746C46.3761 8.93981 47.3738 8.75932 48.5005 8.75932C52.6762 8.75932 55.1649 11.1 55.1649 15.2456C55.1649 16.368 54.9743 17.5243 54.6828 18.6467Z" fill="#50B848"/>
<path id="Vector_12" d="M166.829 15.584C168.735 13.4125 170.243 11.6076 172.412 8.70287L172.726 8.54495C174.94 8.54495 175.506 8.54495 177.911 8.44906L178.006 8.76492C177.625 9.17665 175.702 11.1169 175.287 11.5625L171.717 15.4091C173.488 20.1469 173.768 20.8463 175.349 25.0088L175.131 25.3247L169.856 25.4544L169.604 25.2626C169.071 23.4803 167.502 18.3308 166.7 16.2044C165.977 19.5773 165.608 21.4047 164.884 25.1385L164.666 25.3303L159.453 25.46L159.324 25.2401L160.619 19.7408L161.123 17.5806C161.975 13.6042 162.138 12.7131 162.609 9.21614L162.861 8.96233C165.266 8.64647 165.703 8.57879 168.135 8.07117L168.354 8.29678L167.945 10.0453L167.345 13.1925L166.829 15.5896V15.584Z" fill="#006C3F"/>
<path id="Vector_13" d="M68.0904 21.4555C67.7429 21.7432 67.3898 22.0647 67.0423 22.2846C66.2183 22.7979 65.1365 23.0179 64.279 23.0179C61.3924 23.0179 60.5684 20.5587 60.5684 19.0246C60.5684 18.8666 60.6301 14.7436 63.9651 12.448C65.8372 11.1677 67.8998 11.1057 68.948 11.1057C69.4244 11.1057 69.9009 11.1395 70.3773 11.1395L68.0904 21.4555ZM74.1495 8.99621L73.9925 8.7424L69.6094 8.70856C66.6892 8.70856 62.5975 8.90033 59.6436 12.3804C58.3096 13.9765 57.1045 16.7233 57.1045 19.2502C57.1045 23.2435 59.7389 25.539 62.9786 25.539C65.6746 25.539 67.0759 24.3602 67.614 23.909L67.3898 25.1894L67.5523 25.415L70.5342 25.3529L70.7528 25.1329C71.3862 21.3314 71.6104 20.1188 72.7202 15.2005L74.1495 9.00185V8.99621Z" fill="#50B848"/>
<path id="Vector_14" d="M117.824 21.4555C117.476 21.7432 117.123 22.0647 116.776 22.2846C115.952 22.7979 114.87 23.0179 114.012 23.0179C111.126 23.0179 110.302 20.5587 110.302 19.0246C110.302 18.8666 110.363 14.7436 113.698 12.448C115.571 11.1677 117.633 11.1057 118.681 11.1057C119.158 11.1057 119.634 11.1395 120.111 11.1395L117.824 21.4555ZM123.888 8.99621L123.732 8.7424L119.348 8.70856C116.428 8.70856 112.331 8.90033 109.383 12.3804C108.049 13.9765 106.838 16.7233 106.838 19.2502C106.838 23.2435 109.472 25.539 112.712 25.539C115.408 25.539 116.809 24.3602 117.347 23.909L117.129 25.1894L117.286 25.415L120.268 25.3529L120.492 25.1329C121.125 21.3314 121.349 20.1188 122.459 15.2005L123.888 9.00185V8.99621Z" fill="#50B848"/>
<path id="Vector_15" d="M105.992 10.7447C107.264 9.65611 107.421 9.53202 107.735 9.24437L107.64 8.95672H103.991L103.643 9.14849C103.139 9.68995 100.443 12.5044 99.3273 13.5874C98.2847 14.6026 97.8419 15.02 97.0852 15.6855C97.2646 14.8677 97.4664 13.9709 97.6906 12.9387L98.1838 10.4739L98.5257 8.88904L98.3688 8.66907C96.8442 8.99056 96.4967 9.0526 95.0058 9.24437L94.7816 9.46998C94.2715 12.95 94.1146 13.7791 93.257 17.5525L92.7525 19.9496L91.4521 25.4432L91.6091 25.6631L94.8488 25.5672L95.0674 25.3755C95.8465 21.2694 96.2893 19.2896 96.9843 16.1537L99.204 20.6771C100.347 23.0066 100.566 23.4578 101.396 25.4375L101.653 25.6293L105.173 25.5334L105.364 25.2796L100.443 15.8604L104.568 12.025C105.173 11.4835 105.487 11.1621 105.997 10.7503L105.992 10.7447Z" fill="#50B848"/>
<path id="Vector_16" d="M143.344 25.5108H124.102L124.001 25.3698C124.287 24.5069 124.561 23.6608 125.021 22.1662L125.072 22.0082L125.172 21.6642L125.425 21.4386C125.828 21.2524 127.846 20.0793 130.228 15.6348C132.386 11.6076 133.591 8.65777 133.591 8.65777L133.905 8.47728L134.017 8.4942C135.648 8.4942 138.277 8.52805 139.863 8.52805C141.735 8.52805 142.245 8.4942 143.77 8.466L143.927 8.65777C143.63 10.0848 143.636 10.0848 143.636 10.0848L143.036 13.232L142.655 14.9974L142.234 16.9602C141.864 18.6918 141.59 20.0341 141.281 21.557C142.358 21.5457 143.142 21.5232 144.196 21.478L144.319 21.7037L144.129 22.5553L143.776 24.2136C143.68 24.6761 143.535 25.398 143.535 25.398L143.35 25.5221L143.344 25.5108ZM138.524 12.4819H138.333C137.722 12.4819 137.01 12.4819 136.242 12.4988L134.118 16.7346C132.835 19.2332 131.686 20.711 130.873 21.5514L132.201 21.5739H136.584L137.005 19.786L137.509 17.6258C138.03 15.1948 138.288 13.9145 138.524 12.4875" fill="#006C3F"/>
<path id="Vector_17" d="M0 15.8998C0 7.12363 7.06238 0.0112805 15.7783 0V5.74741C10.2124 5.75869 5.70595 10.2991 5.70595 15.8998C5.70595 21.5006 10.2236 26.0523 15.7951 26.0523C21.3665 26.0523 25.8842 21.5063 25.8842 15.8998L31.5957 15.866C31.5957 24.6817 24.5222 31.7997 15.7951 31.7997C7.06799 31.7997 0 24.6761 0 15.8998Z" fill="#006C3F"/>
<path id="Vector_18" d="M8.82812 15.8999C8.82812 12.0024 11.967 8.84955 15.8345 8.84955C19.7019 8.84955 22.8408 12.0081 22.8408 15.8999C22.8408 19.7916 19.7019 22.9502 15.8345 22.9502C11.967 22.9502 8.82812 19.7916 8.82812 15.8999Z" fill="#50B848"/>
<path id="Vector_19" d="M20.6943 6.96569C20.6943 4.73215 22.4936 2.92163 24.7132 2.92163C26.9328 2.92163 28.7264 4.73215 28.7264 6.96569C28.7264 9.19922 26.9272 11.0041 24.7132 11.0041C22.4992 11.0041 20.6943 9.19358 20.6943 6.96569Z" fill="#006C3F"/>
</g>
<defs>
<clipPath id="clip0_9321_5248">
<rect width="178" height="37" fill="white"/>
</clipPath>
</defs>
</svg>
